<svg width="300" height="300" viewBox="0 0 300 300" fill="none" xmlns="http://www.w3.org/2000/svg">
  <circle cx="150" cy="150" r="150" fill="#31321B" />
  <path
    d="M150.017 67C122.457 67 100 89.3993 100 116.965V151.057C100 176.244 118.748 197.147 143.042 200.512V219.683H128.275C124.43 219.683 121.334 222.776 121.334 226.617C121.334 230.457 124.43 233.551 128.275 233.551H171.725C175.57 233.551 178.666 230.457 178.666 226.617C178.666 222.776 175.57 219.683 171.725 219.683H156.958V200.512C181.252 197.113 200 176.244 200 151.057V116.965C200.034 89.3993 177.577 67 150.017 67ZM150.017 187.12C135.488 187.12 122.933 178.521 117.217 166.115H132.562C136.407 166.115 139.503 163.021 139.503 159.181C139.503 155.34 136.407 152.247 132.562 152.247H113.916C113.916 151.839 113.882 140.928 113.882 140.928H132.528C136.373 140.928 139.469 137.835 139.469 133.994C139.469 130.153 136.373 127.06 132.528 127.06H113.882C113.882 127.06 113.882 116.149 113.916 115.742H132.562C136.407 115.742 139.503 112.648 139.503 108.808C139.503 104.967 136.407 101.874 132.562 101.874H117.217C122.933 89.5013 135.488 80.8679 150.017 80.8679C164.546 80.8679 177.101 89.4673 182.817 101.874H167.472C163.627 101.874 160.531 104.967 160.531 108.808C160.531 112.648 163.627 115.742 167.472 115.742H186.118C186.118 116.149 186.152 127.06 186.152 127.06H167.506C163.661 127.06 160.565 130.153 160.565 133.994C160.565 137.835 163.661 140.928 167.506 140.928H186.152C186.152 140.928 186.152 151.839 186.118 152.247H167.472C163.627 152.247 160.531 155.34 160.531 159.181C160.531 163.021 163.627 166.115 167.472 166.115H182.817C177.101 178.521 164.546 187.12 150.017 187.12Z"
    fill="url(#paint0_linear_1_22)" />
  <path
    d="M72.1053 93.95C72.1053 92.8731 71.2216 92 70.1316 92C69.0416 92 68.1579 92.8731 68.1579 93.95V108.928C66.8286 108.087 65.2482 107.6 63.5526 107.6C58.8291 107.6 55 111.383 55 116.05C55 120.717 58.8291 124.5 63.5526 124.5C68.2761 124.5 72.1053 120.717 72.1053 116.05V101.762C73.9435 103.074 76.1304 103.7 78.0263 103.7C79.1163 103.7 80 102.827 80 101.75C80 100.673 79.1163 99.8 78.0263 99.8C76.8307 99.8 75.3061 99.3421 74.1094 98.3658C72.9695 97.4356 72.1053 96.0244 72.1053 93.95Z"
    fill="#294ECC" />
  <path
    d="M232.105 203.95C232.105 202.873 231.222 202 230.132 202C229.042 202 228.158 202.873 228.158 203.95V218.928C226.829 218.087 225.248 217.6 223.553 217.6C218.829 217.6 215 221.383 215 226.05C215 230.717 218.829 234.5 223.553 234.5C228.276 234.5 232.105 230.717 232.105 226.05V211.762C233.943 213.074 236.13 213.7 238.026 213.7C239.116 213.7 240 212.827 240 211.75C240 210.673 239.116 209.8 238.026 209.8C236.831 209.8 235.306 209.342 234.109 208.366C232.969 207.436 232.105 206.024 232.105 203.95Z"
    fill="#2CD732" />
  <path
    d="M227.105 52.95C227.105 51.8731 226.222 51 225.132 51C224.042 51 223.158 51.8731 223.158 52.95V67.9284C221.829 67.0875 220.248 66.6 218.553 66.6C213.829 66.6 210 70.3832 210 75.05C210 79.7167 213.829 83.5 218.553 83.5C223.276 83.5 227.105 79.7167 227.105 75.05V60.7617C228.943 62.0737 231.13 62.7 233.026 62.7C234.116 62.7 235 61.8269 235 60.75C235 59.6731 234.116 58.8 233.026 58.8C231.831 58.8 230.306 58.3421 229.109 57.3658C227.969 56.4356 227.105 55.0244 227.105 52.95Z"
    fill="#F2133C" />
  <defs>
    <linearGradient id="paint0_linear_1_22" x1="150" y1="67" x2="150" y2="233.551" gradientUnits="userSpaceOnUse">
      <stop stop-color="#BCEE31" />
      <stop offset="1" stop-color="#EB1616" />
    </linearGradient>
  </defs>
</svg>
